<mxfile host="app.diagrams.net" agent="Mozilla/5.0 (Windows NT 10.0; Win64; x64) AppleWebKit/537.36 (KHTML, like Gecko) Chrome/137.0.0.0 Safari/537.36" version="27.1.4" pages="2">
  <diagram name="Page-1" id="TeloTiFFc2VVtZ3YHD7H">
    <mxGraphModel dx="1119" dy="592" grid="1" gridSize="10" guides="1" tooltips="1" connect="1" arrows="1" fold="1" page="1" pageScale="1" pageWidth="1100" pageHeight="850" math="0" shadow="0">
      <root>
        <mxCell id="0" />
        <mxCell id="1" parent="0" />
        <mxCell id="ZZ8p1Q8sAwQbuA4G3PBU-1" value="PC [UDP]" style="rounded=0;whiteSpace=wrap;html=1;" vertex="1" parent="1">
          <mxGeometry x="560" y="400" width="120" height="200" as="geometry" />
        </mxCell>
        <mxCell id="ZZ8p1Q8sAwQbuA4G3PBU-2" value="Pulser" style="rounded=1;whiteSpace=wrap;html=1;arcSize=8;" vertex="1" parent="1">
          <mxGeometry x="40" y="400" width="160" height="120" as="geometry" />
        </mxCell>
        <mxCell id="ZZ8p1Q8sAwQbuA4G3PBU-3" value="Power Supply" style="rounded=0;whiteSpace=wrap;html=1;" vertex="1" parent="1">
          <mxGeometry x="280" y="560" width="120" height="40" as="geometry" />
        </mxCell>
        <mxCell id="ZZ8p1Q8sAwQbuA4G3PBU-4" value="Signal Source" style="rounded=0;whiteSpace=wrap;html=1;" vertex="1" parent="1">
          <mxGeometry x="280" y="400" width="120" height="40" as="geometry" />
        </mxCell>
        <mxCell id="ZZ8p1Q8sAwQbuA4G3PBU-5" value="" style="endArrow=classic;html=1;rounded=0;" edge="1" parent="1">
          <mxGeometry width="50" height="50" relative="1" as="geometry">
            <mxPoint x="280" y="420" as="sourcePoint" />
            <mxPoint x="200" y="420" as="targetPoint" />
          </mxGeometry>
        </mxCell>
        <mxCell id="ZZ8p1Q8sAwQbuA4G3PBU-9" value="FPGA [UDP]" style="rounded=0;whiteSpace=wrap;html=1;" vertex="1" parent="1">
          <mxGeometry x="280" y="480" width="120" height="40" as="geometry" />
        </mxCell>
        <mxCell id="ZZ8p1Q8sAwQbuA4G3PBU-11" value="" style="endArrow=classic;html=1;rounded=0;exitX=0;exitY=0.5;exitDx=0;exitDy=0;" edge="1" parent="1" source="ZZ8p1Q8sAwQbuA4G3PBU-9">
          <mxGeometry width="50" height="50" relative="1" as="geometry">
            <mxPoint x="590.29" y="510" as="sourcePoint" />
            <mxPoint x="200" y="500" as="targetPoint" />
          </mxGeometry>
        </mxCell>
        <mxCell id="ZZ8p1Q8sAwQbuA4G3PBU-12" value="Adapter&lt;div&gt;Board&lt;/div&gt;" style="rounded=0;whiteSpace=wrap;html=1;" vertex="1" parent="1">
          <mxGeometry x="400" y="160" width="80" height="120" as="geometry" />
        </mxCell>
        <mxCell id="ZZ8p1Q8sAwQbuA4G3PBU-13" value="" style="rounded=0;whiteSpace=wrap;html=1;" vertex="1" parent="1">
          <mxGeometry x="40" y="160" width="360" height="40" as="geometry" />
        </mxCell>
        <mxCell id="ZZ8p1Q8sAwQbuA4G3PBU-14" value="" style="rounded=0;whiteSpace=wrap;html=1;" vertex="1" parent="1">
          <mxGeometry x="40" y="200" width="360" height="40" as="geometry" />
        </mxCell>
        <mxCell id="ZZ8p1Q8sAwQbuA4G3PBU-15" value="" style="rounded=0;whiteSpace=wrap;html=1;" vertex="1" parent="1">
          <mxGeometry x="40" y="240" width="360" height="40" as="geometry" />
        </mxCell>
        <mxCell id="ZZ8p1Q8sAwQbuA4G3PBU-16" value="oscilloscope" style="rounded=0;whiteSpace=wrap;html=1;" vertex="1" parent="1">
          <mxGeometry x="560" y="160" width="120" height="120" as="geometry" />
        </mxCell>
        <mxCell id="ZZ8p1Q8sAwQbuA4G3PBU-17" value="" style="endArrow=classic;html=1;rounded=0;entryX=0;entryY=0.5;entryDx=0;entryDy=0;exitX=1;exitY=0.5;exitDx=0;exitDy=0;" edge="1" parent="1">
          <mxGeometry width="50" height="50" relative="1" as="geometry">
            <mxPoint x="480" y="179.71" as="sourcePoint" />
            <mxPoint x="560" y="179.71" as="targetPoint" />
          </mxGeometry>
        </mxCell>
        <mxCell id="ZZ8p1Q8sAwQbuA4G3PBU-18" value="" style="endArrow=classic;html=1;rounded=0;exitX=0.5;exitY=0;exitDx=0;exitDy=0;entryX=0.5;entryY=1;entryDx=0;entryDy=0;" edge="1" parent="1" source="ZZ8p1Q8sAwQbuA4G3PBU-2">
          <mxGeometry width="50" height="50" relative="1" as="geometry">
            <mxPoint x="119.70999999999998" y="320" as="sourcePoint" />
            <mxPoint x="119.70999999999998" y="280" as="targetPoint" />
          </mxGeometry>
        </mxCell>
        <mxCell id="ZZ8p1Q8sAwQbuA4G3PBU-19" value="" style="endArrow=classic;html=1;rounded=0;entryX=0;entryY=0.5;entryDx=0;entryDy=0;exitX=1;exitY=0.5;exitDx=0;exitDy=0;" edge="1" parent="1">
          <mxGeometry width="50" height="50" relative="1" as="geometry">
            <mxPoint x="480" y="259.71" as="sourcePoint" />
            <mxPoint x="560" y="259.71" as="targetPoint" />
          </mxGeometry>
        </mxCell>
        <mxCell id="ZZ8p1Q8sAwQbuA4G3PBU-20" value="input signal" style="text;html=1;align=center;verticalAlign=middle;whiteSpace=wrap;rounded=0;" vertex="1" parent="1">
          <mxGeometry x="480" y="150" width="80" height="30" as="geometry" />
        </mxCell>
        <mxCell id="ZZ8p1Q8sAwQbuA4G3PBU-21" value="Crosstalk" style="text;html=1;align=center;verticalAlign=middle;whiteSpace=wrap;rounded=0;" vertex="1" parent="1">
          <mxGeometry x="480" y="230" width="80" height="30" as="geometry" />
        </mxCell>
        <mxCell id="ZZ8p1Q8sAwQbuA4G3PBU-23" value="" style="endArrow=classic;html=1;rounded=0;exitX=0;exitY=0.5;exitDx=0;exitDy=0;entryX=0.5;entryY=1;entryDx=0;entryDy=0;" edge="1" parent="1" source="ZZ8p1Q8sAwQbuA4G3PBU-3" target="ZZ8p1Q8sAwQbuA4G3PBU-2">
          <mxGeometry width="50" height="50" relative="1" as="geometry">
            <mxPoint x="430" y="460" as="sourcePoint" />
            <mxPoint x="480" y="410" as="targetPoint" />
            <Array as="points">
              <mxPoint x="120" y="580" />
            </Array>
          </mxGeometry>
        </mxCell>
        <mxCell id="ZZ8p1Q8sAwQbuA4G3PBU-24" value="" style="endArrow=classic;html=1;rounded=0;entryX=1;entryY=0.5;entryDx=0;entryDy=0;exitX=0;exitY=0.167;exitDx=0;exitDy=0;exitPerimeter=0;" edge="1" parent="1" target="ZZ8p1Q8sAwQbuA4G3PBU-9">
          <mxGeometry width="50" height="50" relative="1" as="geometry">
            <mxPoint x="560" y="499.76" as="sourcePoint" />
            <mxPoint x="480" y="499.76" as="targetPoint" />
          </mxGeometry>
        </mxCell>
        <mxCell id="ZZ8p1Q8sAwQbuA4G3PBU-26" value="" style="endArrow=classic;html=1;rounded=0;exitX=0.5;exitY=1;exitDx=0;exitDy=0;exitPerimeter=0;entryX=0.5;entryY=0;entryDx=0;entryDy=0;" edge="1" parent="1" source="ZZ8p1Q8sAwQbuA4G3PBU-16" target="ZZ8p1Q8sAwQbuA4G3PBU-1">
          <mxGeometry width="50" height="50" relative="1" as="geometry">
            <mxPoint x="620.05" y="400" as="sourcePoint" />
            <mxPoint x="640" y="380" as="targetPoint" />
          </mxGeometry>
        </mxCell>
        <mxCell id="ZZ8p1Q8sAwQbuA4G3PBU-28" value="" style="endArrow=classic;html=1;rounded=0;exitX=0.5;exitY=0;exitDx=0;exitDy=0;entryX=0.5;entryY=1;entryDx=0;entryDy=0;" edge="1" parent="1" source="ZZ8p1Q8sAwQbuA4G3PBU-3" target="ZZ8p1Q8sAwQbuA4G3PBU-9">
          <mxGeometry width="50" height="50" relative="1" as="geometry">
            <mxPoint x="430" y="380" as="sourcePoint" />
            <mxPoint x="480" y="330" as="targetPoint" />
          </mxGeometry>
        </mxCell>
      </root>
    </mxGraphModel>
  </diagram>
  <diagram id="Yczv45QEYFgok0vxmUzH" name="Page-2">
    <mxGraphModel dx="1343" dy="711" grid="1" gridSize="10" guides="1" tooltips="1" connect="1" arrows="1" fold="1" page="1" pageScale="1" pageWidth="1100" pageHeight="850" math="0" shadow="0">
      <root>
        <mxCell id="0" />
        <mxCell id="1" parent="0" />
        <mxCell id="-RBkq49QDRahVwdtr87m-1" value="" style="rounded=1;whiteSpace=wrap;html=1;" vertex="1" parent="1">
          <mxGeometry x="280" y="350" width="80" height="20" as="geometry" />
        </mxCell>
        <mxCell id="-RBkq49QDRahVwdtr87m-2" value="" style="rounded=1;whiteSpace=wrap;html=1;" vertex="1" parent="1">
          <mxGeometry x="640" y="350" width="80" height="20" as="geometry" />
        </mxCell>
        <mxCell id="-RBkq49QDRahVwdtr87m-3" value="" style="rounded=1;whiteSpace=wrap;html=1;rotation=90;" vertex="1" parent="1">
          <mxGeometry x="200" y="440" width="80" height="20" as="geometry" />
        </mxCell>
        <mxCell id="-RBkq49QDRahVwdtr87m-4" value="" style="rounded=1;whiteSpace=wrap;html=1;rotation=90;" vertex="1" parent="1">
          <mxGeometry x="400" y="440" width="80" height="20" as="geometry" />
        </mxCell>
        <mxCell id="-RBkq49QDRahVwdtr87m-5" value="" style="rounded=1;whiteSpace=wrap;html=1;rotation=90;" vertex="1" parent="1">
          <mxGeometry x="560" y="440" width="80" height="20" as="geometry" />
        </mxCell>
        <mxCell id="-RBkq49QDRahVwdtr87m-6" value="" style="rounded=1;whiteSpace=wrap;html=1;rotation=90;" vertex="1" parent="1">
          <mxGeometry x="720" y="440" width="80" height="20" as="geometry" />
        </mxCell>
        <mxCell id="-RBkq49QDRahVwdtr87m-7" value="" style="endArrow=none;html=1;rounded=0;exitX=1;exitY=0.5;exitDx=0;exitDy=0;entryX=0;entryY=0.5;entryDx=0;entryDy=0;" edge="1" parent="1" source="-RBkq49QDRahVwdtr87m-1" target="-RBkq49QDRahVwdtr87m-2">
          <mxGeometry width="50" height="50" relative="1" as="geometry">
            <mxPoint x="370" y="370" as="sourcePoint" />
            <mxPoint x="420" y="320" as="targetPoint" />
          </mxGeometry>
        </mxCell>
        <mxCell id="-RBkq49QDRahVwdtr87m-8" value="" style="endArrow=none;html=1;rounded=0;entryX=0;entryY=0.5;entryDx=0;entryDy=0;" edge="1" parent="1" target="-RBkq49QDRahVwdtr87m-1">
          <mxGeometry width="50" height="50" relative="1" as="geometry">
            <mxPoint x="80" y="360" as="sourcePoint" />
            <mxPoint x="200" y="335" as="targetPoint" />
          </mxGeometry>
        </mxCell>
        <mxCell id="-RBkq49QDRahVwdtr87m-9" value="" style="endArrow=none;html=1;rounded=0;" edge="1" parent="1">
          <mxGeometry width="50" height="50" relative="1" as="geometry">
            <mxPoint x="220" y="530" as="sourcePoint" />
            <mxPoint x="260" y="530" as="targetPoint" />
          </mxGeometry>
        </mxCell>
        <mxCell id="-RBkq49QDRahVwdtr87m-10" value="" style="endArrow=none;html=1;rounded=0;" edge="1" parent="1">
          <mxGeometry width="50" height="50" relative="1" as="geometry">
            <mxPoint x="230" y="540" as="sourcePoint" />
            <mxPoint x="250" y="540" as="targetPoint" />
          </mxGeometry>
        </mxCell>
        <mxCell id="-RBkq49QDRahVwdtr87m-11" value="" style="endArrow=none;html=1;rounded=0;" edge="1" parent="1">
          <mxGeometry width="50" height="50" relative="1" as="geometry">
            <mxPoint x="230" y="550" as="sourcePoint" />
            <mxPoint x="250" y="550" as="targetPoint" />
          </mxGeometry>
        </mxCell>
        <mxCell id="-RBkq49QDRahVwdtr87m-12" value="" style="endArrow=none;html=1;rounded=0;" edge="1" parent="1">
          <mxGeometry width="50" height="50" relative="1" as="geometry">
            <mxPoint x="420" y="530" as="sourcePoint" />
            <mxPoint x="460" y="530" as="targetPoint" />
          </mxGeometry>
        </mxCell>
        <mxCell id="-RBkq49QDRahVwdtr87m-13" value="" style="endArrow=none;html=1;rounded=0;" edge="1" parent="1">
          <mxGeometry width="50" height="50" relative="1" as="geometry">
            <mxPoint x="430" y="540" as="sourcePoint" />
            <mxPoint x="450" y="540" as="targetPoint" />
          </mxGeometry>
        </mxCell>
        <mxCell id="-RBkq49QDRahVwdtr87m-14" value="" style="endArrow=none;html=1;rounded=0;" edge="1" parent="1">
          <mxGeometry width="50" height="50" relative="1" as="geometry">
            <mxPoint x="430" y="550" as="sourcePoint" />
            <mxPoint x="450" y="550" as="targetPoint" />
          </mxGeometry>
        </mxCell>
        <mxCell id="-RBkq49QDRahVwdtr87m-15" value="" style="endArrow=none;html=1;rounded=0;" edge="1" parent="1">
          <mxGeometry width="50" height="50" relative="1" as="geometry">
            <mxPoint x="580" y="530" as="sourcePoint" />
            <mxPoint x="620" y="530" as="targetPoint" />
          </mxGeometry>
        </mxCell>
        <mxCell id="-RBkq49QDRahVwdtr87m-16" value="" style="endArrow=none;html=1;rounded=0;" edge="1" parent="1">
          <mxGeometry width="50" height="50" relative="1" as="geometry">
            <mxPoint x="590" y="540" as="sourcePoint" />
            <mxPoint x="610" y="540" as="targetPoint" />
          </mxGeometry>
        </mxCell>
        <mxCell id="-RBkq49QDRahVwdtr87m-17" value="" style="endArrow=none;html=1;rounded=0;" edge="1" parent="1">
          <mxGeometry width="50" height="50" relative="1" as="geometry">
            <mxPoint x="590" y="550" as="sourcePoint" />
            <mxPoint x="610" y="550" as="targetPoint" />
          </mxGeometry>
        </mxCell>
        <mxCell id="-RBkq49QDRahVwdtr87m-18" value="" style="endArrow=none;html=1;rounded=0;" edge="1" parent="1">
          <mxGeometry width="50" height="50" relative="1" as="geometry">
            <mxPoint x="740" y="530" as="sourcePoint" />
            <mxPoint x="780" y="530" as="targetPoint" />
          </mxGeometry>
        </mxCell>
        <mxCell id="-RBkq49QDRahVwdtr87m-19" value="" style="endArrow=none;html=1;rounded=0;" edge="1" parent="1">
          <mxGeometry width="50" height="50" relative="1" as="geometry">
            <mxPoint x="750" y="540" as="sourcePoint" />
            <mxPoint x="770" y="540" as="targetPoint" />
          </mxGeometry>
        </mxCell>
        <mxCell id="-RBkq49QDRahVwdtr87m-20" value="" style="endArrow=none;html=1;rounded=0;" edge="1" parent="1">
          <mxGeometry width="50" height="50" relative="1" as="geometry">
            <mxPoint x="750" y="550" as="sourcePoint" />
            <mxPoint x="770" y="550" as="targetPoint" />
          </mxGeometry>
        </mxCell>
        <mxCell id="-RBkq49QDRahVwdtr87m-21" value="" style="endArrow=none;html=1;rounded=0;entryX=1;entryY=0.5;entryDx=0;entryDy=0;" edge="1" parent="1" target="-RBkq49QDRahVwdtr87m-3">
          <mxGeometry width="50" height="50" relative="1" as="geometry">
            <mxPoint x="240" y="530" as="sourcePoint" />
            <mxPoint x="520" y="470" as="targetPoint" />
          </mxGeometry>
        </mxCell>
        <mxCell id="-RBkq49QDRahVwdtr87m-22" value="" style="endArrow=none;html=1;rounded=0;entryX=1;entryY=0.5;entryDx=0;entryDy=0;" edge="1" parent="1">
          <mxGeometry width="50" height="50" relative="1" as="geometry">
            <mxPoint x="439.79999999999995" y="530" as="sourcePoint" />
            <mxPoint x="439.79999999999995" y="490" as="targetPoint" />
          </mxGeometry>
        </mxCell>
        <mxCell id="-RBkq49QDRahVwdtr87m-23" value="" style="endArrow=none;html=1;rounded=0;entryX=1;entryY=0.5;entryDx=0;entryDy=0;" edge="1" parent="1">
          <mxGeometry width="50" height="50" relative="1" as="geometry">
            <mxPoint x="599.8" y="530" as="sourcePoint" />
            <mxPoint x="599.8" y="490" as="targetPoint" />
          </mxGeometry>
        </mxCell>
        <mxCell id="-RBkq49QDRahVwdtr87m-24" value="" style="endArrow=none;html=1;rounded=0;entryX=1;entryY=0.5;entryDx=0;entryDy=0;" edge="1" parent="1">
          <mxGeometry width="50" height="50" relative="1" as="geometry">
            <mxPoint x="759.8" y="530" as="sourcePoint" />
            <mxPoint x="759.8" y="490" as="targetPoint" />
          </mxGeometry>
        </mxCell>
        <mxCell id="-RBkq49QDRahVwdtr87m-25" value="" style="endArrow=none;html=1;rounded=0;entryX=0;entryY=0.5;entryDx=0;entryDy=0;" edge="1" parent="1">
          <mxGeometry width="50" height="50" relative="1" as="geometry">
            <mxPoint x="720" y="359.8" as="sourcePoint" />
            <mxPoint x="920" y="359.8" as="targetPoint" />
          </mxGeometry>
        </mxCell>
        <mxCell id="-RBkq49QDRahVwdtr87m-26" value="" style="endArrow=none;html=1;rounded=0;entryX=1;entryY=0.5;entryDx=0;entryDy=0;exitX=0;exitY=0.5;exitDx=0;exitDy=0;" edge="1" parent="1" source="-RBkq49QDRahVwdtr87m-3">
          <mxGeometry width="50" height="50" relative="1" as="geometry">
            <mxPoint x="239.8" y="400" as="sourcePoint" />
            <mxPoint x="239.8" y="360" as="targetPoint" />
          </mxGeometry>
        </mxCell>
        <mxCell id="-RBkq49QDRahVwdtr87m-27" value="" style="endArrow=none;html=1;rounded=0;entryX=1;entryY=0.5;entryDx=0;entryDy=0;exitX=0;exitY=0.5;exitDx=0;exitDy=0;" edge="1" parent="1" source="-RBkq49QDRahVwdtr87m-4">
          <mxGeometry width="50" height="50" relative="1" as="geometry">
            <mxPoint x="439.79999999999995" y="400" as="sourcePoint" />
            <mxPoint x="439.79999999999995" y="360" as="targetPoint" />
          </mxGeometry>
        </mxCell>
        <mxCell id="-RBkq49QDRahVwdtr87m-28" value="" style="endArrow=none;html=1;rounded=0;entryX=1;entryY=0.5;entryDx=0;entryDy=0;exitX=0;exitY=0.5;exitDx=0;exitDy=0;" edge="1" parent="1" source="-RBkq49QDRahVwdtr87m-5">
          <mxGeometry width="50" height="50" relative="1" as="geometry">
            <mxPoint x="599.8" y="400" as="sourcePoint" />
            <mxPoint x="599.8" y="360" as="targetPoint" />
          </mxGeometry>
        </mxCell>
        <mxCell id="-RBkq49QDRahVwdtr87m-29" value="" style="endArrow=none;html=1;rounded=0;entryX=1;entryY=0.5;entryDx=0;entryDy=0;exitX=0;exitY=0.5;exitDx=0;exitDy=0;" edge="1" parent="1" source="-RBkq49QDRahVwdtr87m-6">
          <mxGeometry width="50" height="50" relative="1" as="geometry">
            <mxPoint x="759.8" y="400" as="sourcePoint" />
            <mxPoint x="759.8" y="360" as="targetPoint" />
          </mxGeometry>
        </mxCell>
        <mxCell id="-RBkq49QDRahVwdtr87m-31" value="49.9 k" style="text;html=1;align=center;verticalAlign=middle;whiteSpace=wrap;rounded=0;" vertex="1" parent="1">
          <mxGeometry x="290" y="320" width="60" height="30" as="geometry" />
        </mxCell>
        <mxCell id="-RBkq49QDRahVwdtr87m-32" value="49.9 k" style="text;html=1;align=center;verticalAlign=middle;whiteSpace=wrap;rounded=0;" vertex="1" parent="1">
          <mxGeometry x="650" y="320" width="60" height="30" as="geometry" />
        </mxCell>
        <mxCell id="-RBkq49QDRahVwdtr87m-33" value="100 k" style="text;html=1;align=center;verticalAlign=middle;whiteSpace=wrap;rounded=0;" vertex="1" parent="1">
          <mxGeometry x="250" y="435" width="60" height="30" as="geometry" />
        </mxCell>
        <mxCell id="-RBkq49QDRahVwdtr87m-34" value="100 k" style="text;html=1;align=center;verticalAlign=middle;whiteSpace=wrap;rounded=0;" vertex="1" parent="1">
          <mxGeometry x="370" y="435" width="60" height="30" as="geometry" />
        </mxCell>
        <mxCell id="-RBkq49QDRahVwdtr87m-35" value="100 k" style="text;html=1;align=center;verticalAlign=middle;whiteSpace=wrap;rounded=0;" vertex="1" parent="1">
          <mxGeometry x="610" y="435" width="60" height="30" as="geometry" />
        </mxCell>
        <mxCell id="-RBkq49QDRahVwdtr87m-36" value="100 k" style="text;html=1;align=center;verticalAlign=middle;whiteSpace=wrap;rounded=0;" vertex="1" parent="1">
          <mxGeometry x="770" y="435" width="60" height="30" as="geometry" />
        </mxCell>
        <mxCell id="-RBkq49QDRahVwdtr87m-37" value="Signal input&lt;div&gt;Vin&lt;/div&gt;" style="rounded=0;whiteSpace=wrap;html=1;" vertex="1" parent="1">
          <mxGeometry y="340" width="80" height="40" as="geometry" />
        </mxCell>
        <mxCell id="-RBkq49QDRahVwdtr87m-38" value="Signal output&lt;div&gt;Vout = Vc * 2/3 = Vin *2/7&lt;/div&gt;" style="rounded=0;whiteSpace=wrap;html=1;" vertex="1" parent="1">
          <mxGeometry x="920" y="340" width="140" height="40" as="geometry" />
        </mxCell>
        <mxCell id="-RBkq49QDRahVwdtr87m-39" value="" style="endArrow=none;html=1;rounded=0;" edge="1" parent="1">
          <mxGeometry width="50" height="50" relative="1" as="geometry">
            <mxPoint x="490" y="280" as="sourcePoint" />
            <mxPoint x="550" y="280" as="targetPoint" />
          </mxGeometry>
        </mxCell>
        <mxCell id="-RBkq49QDRahVwdtr87m-40" value="" style="endArrow=none;html=1;rounded=0;" edge="1" parent="1">
          <mxGeometry width="50" height="50" relative="1" as="geometry">
            <mxPoint x="490" y="260" as="sourcePoint" />
            <mxPoint x="550" y="260" as="targetPoint" />
          </mxGeometry>
        </mxCell>
        <mxCell id="-RBkq49QDRahVwdtr87m-41" value="" style="endArrow=none;html=1;rounded=0;" edge="1" parent="1">
          <mxGeometry width="50" height="50" relative="1" as="geometry">
            <mxPoint x="520" y="360" as="sourcePoint" />
            <mxPoint x="520" y="280" as="targetPoint" />
          </mxGeometry>
        </mxCell>
        <mxCell id="-RBkq49QDRahVwdtr87m-42" value="" style="endArrow=none;html=1;rounded=0;" edge="1" parent="1">
          <mxGeometry width="50" height="50" relative="1" as="geometry">
            <mxPoint x="500" y="200" as="sourcePoint" />
            <mxPoint x="540" y="200" as="targetPoint" />
          </mxGeometry>
        </mxCell>
        <mxCell id="-RBkq49QDRahVwdtr87m-43" value="" style="endArrow=none;html=1;rounded=0;" edge="1" parent="1">
          <mxGeometry width="50" height="50" relative="1" as="geometry">
            <mxPoint x="510" y="180" as="sourcePoint" />
            <mxPoint x="530" y="180" as="targetPoint" />
          </mxGeometry>
        </mxCell>
        <mxCell id="-RBkq49QDRahVwdtr87m-44" value="" style="endArrow=none;html=1;rounded=0;" edge="1" parent="1">
          <mxGeometry width="50" height="50" relative="1" as="geometry">
            <mxPoint x="510" y="190" as="sourcePoint" />
            <mxPoint x="530" y="190" as="targetPoint" />
          </mxGeometry>
        </mxCell>
        <mxCell id="-RBkq49QDRahVwdtr87m-45" value="" style="endArrow=none;html=1;rounded=0;entryX=1;entryY=0.5;entryDx=0;entryDy=0;" edge="1" parent="1">
          <mxGeometry width="50" height="50" relative="1" as="geometry">
            <mxPoint x="520" y="260" as="sourcePoint" />
            <mxPoint x="519.8" y="200" as="targetPoint" />
          </mxGeometry>
        </mxCell>
        <mxCell id="-RBkq49QDRahVwdtr87m-46" value="cell capacitance of electrode" style="text;html=1;align=center;verticalAlign=middle;whiteSpace=wrap;rounded=0;" vertex="1" parent="1">
          <mxGeometry x="560" y="250" width="110" height="30" as="geometry" />
        </mxCell>
        <mxCell id="-RBkq49QDRahVwdtr87m-47" value="&lt;span style=&quot;color: rgb(0, 0, 0); font-family: Helvetica; font-size: 12px; font-style: normal; font-variant-ligatures: normal; font-variant-caps: normal; font-weight: 400; letter-spacing: normal; orphans: 2; text-align: center; text-indent: 0px; text-transform: none; widows: 2; word-spacing: 0px; -webkit-text-stroke-width: 0px; white-space: normal; background-color: rgb(236, 236, 236); text-decoration-thickness: initial; text-decoration-style: initial; text-decoration-color: initial; float: none; display: inline !important;&quot;&gt;Vc = Vin * 3/7&lt;/span&gt;" style="text;whiteSpace=wrap;html=1;" vertex="1" parent="1">
          <mxGeometry x="520" y="300" width="110" height="40" as="geometry" />
        </mxCell>
      </root>
    </mxGraphModel>
  </diagram>
</mxfile>
